<svg width="133" height="34" viewBox="0 0 133 34" fill="none" xmlns="http://www.w3.org/2000/svg">
<mask id="mask0_4_389" style="mask-type:luminance" maskUnits="userSpaceOnUse" x="98" y="0" width="35" height="34">
<path d="M98.8687 0H132.869V33.651H98.8687V0Z" fill="white"/>
</mask>
<g mask="url(#mask0_4_389)">
<path d="M132.384 16.7604C132.384 17.8594 132.275 18.9479 132.061 20.026C131.848 21.1094 131.53 22.1563 131.108 23.1719C130.686 24.1875 130.171 25.1563 129.561 26.0677C128.947 26.9844 128.254 27.8281 127.473 28.6094C126.697 29.3854 125.848 30.0833 124.936 30.6927C124.02 31.3021 123.056 31.8177 122.041 32.2396C121.02 32.6615 119.973 32.9792 118.895 33.1927C117.817 33.4115 116.723 33.5156 115.624 33.5156C114.525 33.5156 113.436 33.4115 112.353 33.1927C111.275 32.9792 110.228 32.6615 109.212 32.2396C108.197 31.8177 107.228 31.3021 106.317 30.6927C105.4 30.0833 104.551 29.3854 103.775 28.6094C102.999 27.8281 102.301 26.9844 101.692 26.0677C101.077 25.1563 100.561 24.1875 100.139 23.1719C99.7228 22.1563 99.4051 21.1094 99.1864 20.026C98.9728 18.9479 98.8687 17.8594 98.8687 16.7604C98.8687 15.6563 98.9728 14.5677 99.1864 13.4896C99.4051 12.4115 99.7228 11.3594 100.139 10.3438C100.561 9.32812 101.077 8.36458 101.692 7.44792C102.301 6.53125 102.999 5.6875 103.775 4.90625C104.551 4.13021 105.4 3.4375 106.317 2.82292C107.228 2.21354 108.197 1.69792 109.212 1.27604C110.228 0.854167 111.275 0.536458 112.353 0.322917C113.436 0.109375 114.525 0 115.624 0C116.723 0 117.817 0.109375 118.895 0.322917C119.973 0.536458 121.02 0.854167 122.041 1.27604C123.056 1.69792 124.02 2.21354 124.936 2.82292C125.848 3.4375 126.697 4.13021 127.473 4.90625C128.254 5.6875 128.947 6.53125 129.561 7.44792C130.171 8.36458 130.686 9.32812 131.108 10.3438C131.53 11.3594 131.848 12.4115 132.061 13.4896C132.275 14.5677 132.384 15.6563 132.384 16.7604Z" fill="white"/>
</g>
<path d="M130.728 16.7604C130.728 17.75 130.629 18.7344 130.436 19.7031C130.244 20.6771 129.957 21.6198 129.577 22.5365C129.197 23.4531 128.733 24.3229 128.181 25.151C127.629 25.974 127.004 26.7344 126.301 27.4375C125.603 28.1406 124.837 28.7656 124.014 29.3125C123.192 29.8646 122.322 30.3333 121.405 30.7083C120.488 31.0885 119.546 31.375 118.572 31.5677C117.598 31.7656 116.619 31.8594 115.624 31.8594C114.634 31.8594 113.65 31.7656 112.681 31.5677C111.707 31.375 110.759 31.0885 109.848 30.7083C108.931 30.3333 108.061 29.8646 107.233 29.3125C106.41 28.7656 105.65 28.1406 104.947 27.4375C104.244 26.7344 103.619 25.974 103.067 25.151C102.52 24.3229 102.051 23.4531 101.671 22.5365C101.296 21.6198 101.009 20.6771 100.811 19.7031C100.619 18.7344 100.525 17.75 100.525 16.7604C100.525 15.7656 100.619 14.7865 100.811 13.8125C101.009 12.8385 101.296 11.8958 101.671 10.9792C102.051 10.0625 102.52 9.19271 103.067 8.36979C103.619 7.54688 104.244 6.78125 104.947 6.07813C105.65 5.38021 106.41 4.75521 107.233 4.20313C108.061 3.65104 108.931 3.1875 109.848 2.80729C110.759 2.42708 111.707 2.14063 112.681 1.94792C113.65 1.75521 114.634 1.65625 115.624 1.65625C116.619 1.65625 117.598 1.75521 118.572 1.94792C119.546 2.14063 120.488 2.42708 121.405 2.80729C122.322 3.1875 123.192 3.65104 124.014 4.20313C124.837 4.75521 125.603 5.38021 126.301 6.07813C127.004 6.78125 127.629 7.54688 128.181 8.36979C128.733 9.19271 129.197 10.0625 129.577 10.9792C129.957 11.8958 130.244 12.8385 130.436 13.8125C130.629 14.7865 130.728 15.7656 130.728 16.7604Z" fill="#737373"/>
<path fill-rule="evenodd" clip-rule="evenodd" d="M107.738 12.8179L101.754 16.2397C101.749 16.4116 101.744 16.5835 101.744 16.7606C101.744 21.4897 104.113 25.6668 107.728 28.1772L107.738 12.8179ZM122.983 11.896L122.999 5.00016C120.863 3.65641 118.337 2.88037 115.624 2.88037C113.494 2.88037 111.478 3.35954 109.676 4.2137L122.983 11.896ZM108.27 21.6252L108.249 28.521C110.384 29.8595 112.916 30.6408 115.624 30.6408C117.754 30.6408 119.77 30.1616 121.572 29.3022L108.27 21.6252ZM115.082 7.9585L101.791 15.646C102.171 10.8075 105.041 6.66162 109.119 4.49495L115.082 7.9585ZM116.166 25.5627L129.462 17.87C129.077 22.7137 126.207 26.8543 122.129 29.021L116.166 25.5627ZM123.514 20.7033L129.494 17.2762C129.499 17.1043 129.504 16.9325 129.504 16.7606C129.504 12.0262 127.139 7.84912 123.52 5.34391L123.514 20.7033Z" fill="white"/>
<path fill-rule="evenodd" clip-rule="evenodd" d="M113.733 10.2501C117.327 9.20843 121.087 11.2709 122.129 14.8647C123.176 18.4584 121.108 22.2188 117.514 23.2657C113.921 24.3126 110.16 22.2449 109.119 18.6511C108.072 15.0574 110.139 11.297 113.733 10.2501Z" fill="white"/>
<path fill-rule="evenodd" clip-rule="evenodd" d="M111.03 15.3439C111.015 15.6616 110.754 15.9116 110.437 15.9116C110.108 15.9064 109.817 15.6304 109.848 15.297C109.978 13.8023 111.15 12.4377 112.457 11.7814C112.754 11.6304 113.119 11.7814 113.249 12.0835C113.379 12.3804 113.239 12.7137 112.952 12.8543C112.103 13.2866 111.218 14.4012 111.03 15.3439Z" fill="#737373"/>
<path d="M114.973 11.4533C114.973 11.62 114.916 11.7606 114.801 11.8752C114.681 11.995 114.541 12.0522 114.374 12.0522C114.207 12.0522 114.067 11.995 113.952 11.8752C113.832 11.7606 113.775 11.62 113.775 11.4533C113.775 11.2866 113.832 11.146 113.952 11.0262C114.067 10.9116 114.207 10.8491 114.374 10.8491C114.541 10.8491 114.681 10.9116 114.801 11.0262C114.916 11.146 114.973 11.2866 114.973 11.4533Z" fill="#737373"/>
<path d="M0.541667 30.1547C1.26042 30.1547 1.88021 29.8995 2.39583 29.3839C2.90625 28.8735 3.17708 28.2537 3.20833 27.5297V4.4672C3.17708 3.74845 2.90625 3.12866 2.39583 2.61304C1.88021 2.10262 1.26042 1.8422 0.541667 1.8422H0V1.42554H12.6458L12.6042 1.8422H12.1042C11.3802 1.8422 10.7552 2.10262 10.2292 2.61304C9.69792 3.12866 9.4375 3.74845 9.4375 4.4672V28.7797H14.8958C16.9219 28.7797 18.625 28.1964 20 27.0297C21.375 25.863 22.3958 24.212 23.0625 22.0714H23.4792L21.5625 30.5714H0V30.1547H0.541667Z" fill="#FBFAFA"/>
<path d="M34.4137 30.1547C35.1325 30.1547 35.7523 29.8995 36.2679 29.3839C36.7783 28.8735 37.0492 28.2537 37.0804 27.5297V4.3422C37.0231 3.62345 36.8148 3.0922 36.4554 2.75887C35.7887 2.1495 35.1064 1.8422 34.4137 1.8422H33.8721V1.42554H49.8096C51.1689 1.42554 52.2939 1.32137 53.1846 1.11304C54.07 0.904704 54.6117 0.75887 54.8096 0.675537V7.9672L54.3929 7.92554V7.4672C54.3929 5.74845 53.7523 4.5245 52.4762 3.80054C51.8617 3.44116 51.1429 3.24845 50.3096 3.2172H43.3096V15.3422H48.8096C49.8356 15.3162 50.6846 14.962 51.3512 14.2797C52.0179 13.6026 52.3512 12.7589 52.3512 11.7589V11.3839H52.7679V20.988H52.3512V20.6547C52.3512 19.6443 52.0231 18.8005 51.3721 18.1339C50.7158 17.4672 49.8929 17.1235 48.8929 17.0922H43.3096V28.7797H48.7679C50.7939 28.7797 52.4971 28.1964 53.8721 27.0297C55.2471 25.863 56.2679 24.212 56.9346 22.0714H57.3512L55.4346 30.5714H33.8721V30.1547H34.4137Z" fill="#FBFAFA"/>
<path d="M81.5145 30.5714H68.3687V30.1547H68.9103C69.9103 30.1547 70.6707 29.7276 71.202 28.863C71.4207 28.4776 71.5457 28.0453 71.577 27.5714V4.42554C71.5457 3.70679 71.2749 3.0922 70.7645 2.5922C70.2489 2.0922 69.6291 1.8422 68.9103 1.8422H68.3687V1.42554H80.4312C83.6499 1.42554 86.2124 2.00887 88.1187 3.17554C90.0197 4.3422 90.9832 6.13387 91.0145 8.55054C90.9832 9.7745 90.7228 10.8422 90.2228 11.7589C89.3062 13.4828 87.8582 14.4672 85.8895 14.7172C88.0249 14.9151 89.7905 15.712 91.1812 17.113C92.5666 18.5193 93.2645 20.2953 93.2645 22.4464C93.2645 25.061 92.2124 27.0662 90.1187 28.4672C88.0197 29.8735 85.1499 30.5714 81.5145 30.5714ZM84.3478 9.0922C84.3166 5.17554 82.5405 3.2172 79.0145 3.2172H77.8062V28.6547H79.7228C79.7489 28.6547 79.7749 28.6547 79.8062 28.6547C81.7228 28.6547 83.2489 28.1026 84.3895 26.988C85.5249 25.8787 86.0978 24.1912 86.0978 21.9255C86.0978 19.6495 85.4572 17.9568 84.1812 16.8422C82.8999 15.7328 81.2489 15.1755 79.2228 15.1755V14.8005C80.6655 14.8005 81.8739 14.337 82.8478 13.4047C83.8166 12.4776 84.3166 11.0401 84.3478 9.0922Z" fill="#FBFAFA"/>
</svg>
